<svg xmlns="http://www.w3.org/2000/svg" viewBox="0 0 624.06 223.46">
  <defs>
    <style>
      .cls-1, .cls-2 {
        fill: #67b4c5;
      }

      .cls-2 {
        font-size: 43.14px;
        font-family: CocogooseProTrial-Regular, CocogooseProTrial;
      }

      .cls-3 {
        letter-spacing: -0.04em;
      }

      .cls-4 {
        letter-spacing: 0em;
      }

      .cls-5 {
        letter-spacing: 0em;
      }

      .cls-6 {
        letter-spacing: -0.02em;
      }

      .cls-7 {
        letter-spacing: -0.02em;
      }

      .cls-8 {
        letter-spacing: -0.04em;
      }

      .cls-9 {
        letter-spacing: 0em;
      }
    </style>
  </defs>
  <g id="Capa_2" data-name="Capa 2">
    <g id="Capa_1-2" data-name="Capa 1">
      <g>
        <g>
          <path class="cls-1" d="M39.3,37.43V58H66.43q9.16,0,14.41,4.59a15.49,15.49,0,0,1,5.24,12.26,15.47,15.47,0,0,1-5.24,12.25Q75.59,91.7,66.43,91.7H39.3v26.19a17.79,17.79,0,0,1-5.62,13.29,19.37,19.37,0,0,1-14,5.43,19.4,19.4,0,0,1-14-5.43A17.78,17.78,0,0,1,0,117.89V22.46A17.78,17.78,0,0,1,5.61,9.17a19.43,19.43,0,0,1,14-5.42H85.14q9,0,14.32,4.77a15.5,15.5,0,0,1,5.33,12.07,15.52,15.52,0,0,1-5.33,12.07q-5.34,4.77-14.32,4.77Z"/>
          <path class="cls-1" d="M227.45,27.05A50.49,50.49,0,0,0,206.21,7.12Q192.36,0,174,0T141.84,7.12A50.49,50.49,0,0,0,120.6,27.05a57.23,57.23,0,0,0-7.39,29.09v26.2a57.26,57.26,0,0,0,7.39,29.1,50.49,50.49,0,0,0,21.24,19.93q13.85,7.11,32.19,7.11t32.18-7.11a50.49,50.49,0,0,0,21.24-19.93,57.16,57.16,0,0,0,7.39-29.1V56.14A57.13,57.13,0,0,0,227.45,27.05Zm-68.34,51a26,26,0,0,1-16.13,0,11.53,11.53,0,0,1-5.2-3.61A8.56,8.56,0,0,1,136,69V56.59A3.07,3.07,0,0,1,137.44,54a6.91,6.91,0,0,1,7.29,0,3.09,3.09,0,0,1,1.46,2.56V69a3.7,3.7,0,0,0,1.41,3,5.7,5.7,0,0,0,6.89,0,3.7,3.7,0,0,0,1.41-3V56.59A3.09,3.09,0,0,1,157.36,54a6.91,6.91,0,0,1,7.29,0,3.09,3.09,0,0,1,1.46,2.56V69a8.57,8.57,0,0,1-1.8,5.4A11.53,11.53,0,0,1,159.11,78.05ZM174,95a8.08,8.08,0,1,1,8.08-8.08A8.09,8.09,0,0,1,174,95Zm38-25.94a8.62,8.62,0,0,1-1.79,5.4,11.53,11.53,0,0,1-5.2,3.61,26,26,0,0,1-16.13,0,11.53,11.53,0,0,1-5.2-3.61,8.57,8.57,0,0,1-1.8-5.4V56.59A3.09,3.09,0,0,1,183.4,54a6.89,6.89,0,0,1,7.28,0,3.07,3.07,0,0,1,1.47,2.56V69a3.69,3.69,0,0,0,1.4,3,5.71,5.71,0,0,0,6.9,0,3.7,3.7,0,0,0,1.41-3V56.59A3.09,3.09,0,0,1,203.32,54a6.91,6.91,0,0,1,7.29,0,3.07,3.07,0,0,1,1.45,2.56ZM174,83a3.88,3.88,0,1,0,3.89,3.88A3.88,3.88,0,0,0,174,83Z"/>
          <path class="cls-1" d="M284.05,131.37a50.47,50.47,0,0,1-21.23-19.93,57.19,57.19,0,0,1-7.4-29.1V56.14a57.19,57.19,0,0,1,7.4-29.1A50.45,50.45,0,0,1,284.05,7.12Q297.9,0,316.24,0a70.69,70.69,0,0,1,21.15,3,53.68,53.68,0,0,1,16.27,8.05,36.25,36.25,0,0,1,9,9.73,19.49,19.49,0,0,1,3.18,10.1,16.71,16.71,0,0,1-5.34,12.82q-5.33,5-14.31,5a16.1,16.1,0,0,1-7.3-1.59,28.73,28.73,0,0,1-7.3-5.9,27,27,0,0,0-7.48-5.89,18.26,18.26,0,0,0-7.86-1.59,19.31,19.31,0,0,0-14.6,6.36q-6,6.36-6,16.09v26.2q0,9.73,6,16.09a19.28,19.28,0,0,0,14.6,6.37A22.65,22.65,0,0,0,325.6,103a25.81,25.81,0,0,0,8-6.27,24.57,24.57,0,0,1,6.83-5.33,17.15,17.15,0,0,1,7.58-1.59q9,0,14.32,5a16.73,16.73,0,0,1,5.33,12.82,19.94,19.94,0,0,1-3.28,10.29,33.07,33.07,0,0,1-9.26,9.73,51.77,51.77,0,0,1-16.65,8,79.48,79.48,0,0,1-22.27,2.9Q297.9,138.48,284.05,131.37Z"/>
          <path class="cls-1" d="M407.74,131.83a46.87,46.87,0,0,1-20-18.71q-6.92-12.06-6.92-28V20.59A17.78,17.78,0,0,1,386.41,7.3a20.88,20.88,0,0,1,28.07,0,17.79,17.79,0,0,1,5.62,13.29V85.15q0,9.54,5.42,15.53a17.73,17.73,0,0,0,26.57,0q5.43-6,5.43-15.53V20.59A17.78,17.78,0,0,1,463.13,7.3a20.88,20.88,0,0,1,28.07,0,17.79,17.79,0,0,1,5.62,13.29V85.15q0,15.9-6.93,28a46.81,46.81,0,0,1-20,18.71q-13.1,6.64-31.06,6.65T407.74,131.83Z"/>
          <path class="cls-1" d="M543.88,135.67a54.8,54.8,0,0,1-17.13-7.86q-13.1-9.36-13.09-20.21,0-8,5.42-12.91t14.22-4.86a17.88,17.88,0,0,1,7.3,1.49,33,33,0,0,1,7.86,5.43A36.53,36.53,0,0,0,558.1,103a26.06,26.06,0,0,0,9.82,1.78q7.86,0,11.89-2.72t4-6.64q0-4.31-5.24-6.83T561.75,82.9A187.89,187.89,0,0,1,538.82,75a42.9,42.9,0,0,1-15.71-11.69q-6.65-7.77-6.65-20.31A39.89,39.89,0,0,1,522.73,21Q529,11.24,541.26,5.62T570.73,0a73.72,73.72,0,0,1,20.68,2.8,50.58,50.58,0,0,1,16.74,8.24A39.63,39.63,0,0,1,617,20.68a19,19,0,0,1,3.28,10.2q0,8.06-5.43,12.91t-14.22,4.87A18,18,0,0,1,592.81,47a30.26,30.26,0,0,1-7.67-5.61,31.58,31.58,0,0,0-8.14-6,21.69,21.69,0,0,0-9.08-1.68c-3.49,0-6.24.75-8.23,2.24a6.48,6.48,0,0,0-3,5.24q0,4.3,5.24,6.83t16.85,5.71a188.27,188.27,0,0,1,22.92,7.86,43,43,0,0,1,15.72,11.69q6.63,7.77,6.64,20.31a41.47,41.47,0,0,1-6.64,23.11q-6.64,10.2-19.93,16t-32.37,5.8A78.35,78.35,0,0,1,543.88,135.67Z"/>
        </g>
        <text class="cls-2" transform="translate(93.74 194.38)"><tspan class="cls-3">T</tspan><tspan x="25.86" y="0">u men</tspan><tspan class="cls-4" x="184.48" y="0">t</tspan><tspan class="cls-5" x="201.14" y="0">e i</tspan><tspan class="cls-6" x="258.08" y="0">n</tspan><tspan class="cls-7" x="290.85" y="0">v</tspan><tspan x="319.61" y="0">o</tspan><tspan class="cls-8" x="352.25" y="0">c</tspan><tspan class="cls-9" x="378.11" y="0">a</tspan></text>
      </g>
    </g>
  </g>
</svg>
